<mxfile host="app.diagrams.net" modified="2023-06-14T02:13:17.270Z" agent="Mozilla/5.0 (Windows NT 6.1) AppleWebKit/537.36 (KHTML, like Gecko) Chrome/109.0.5414.120 Safari/537.36 Avast/109.0.19981.120" version="21.3.8" etag="oo77JgZdrrelNPOBl98m" type="github">
  <diagram name="PÃ¡gina-1" id="_hnuxUqqFH0XXil4-tHH">
    <mxGraphModel>
      <root>
        <mxCell id="0" />
        <mxCell id="1" parent="0" />
      </root>
    </mxGraphModel>
  </diagram>
</mxfile>
